<?xml version="1.0"?>
<svg xmlns="http://www.w3.org/2000/svg" xmlns:xlink="http://www.w3.org/1999/xlink" version="1.1" x="0px" y="0px" viewBox="0 0 750 500" style="enable-;background-color:transparent;" xml:space="preserve">
<g id="BACKGROUND">
	<g id="background">
		<rect style="fill:none;" width="750" height="500" fill="none"/>
	</g>
</g>
<g id="OBJECTS">
	<g>
		
			<text transform="matrix(1 0 0 1 309.5635 261.4434)" style="fill:#F24E29; font-family:'OpenSans-Extrabold'; font-size:129.3699px;">Click</text>
		
			<text transform="matrix(1 0 0 1 309.5606 330.7042)" style="fill:#1F3B53; font-family:'OpenSans-Semibold'; font-size:72.9089px;">&amp;</text>
		
			<text transform="matrix(1 0 0 1 373.6089 330.8135)" style="fill:#1F3B53; font-family:'OpenSans-Extrabold'; font-size:72.9089px;">Collect</text>
	</g>
	<g>
		<g>
			
				
			<polygon style="fill:#F24E29;" points="292.462,288.543 233.795,143.008 130.561,161.003 132.488,167.879 130.561,161.003      124.904,172.021 113.26,170.718 125.397,338.986 180.636,339.729    "/>
			<g>
				<path style="fill: rgb(255, 255, 255); visibility: hidden;" d="M152.783,321.193c-1.425-6.166-2.7-12.361-4.055-18.54l-3.81-18.586      c-2.537-12.391-4.89-24.816-7.243-37.242c-2.297-12.436-4.589-24.873-6.701-37.343l-3.159-18.708      c-0.967-6.252-2.015-12.488-2.912-18.754c1.427,6.166,2.702,12.36,4.058,18.539l3.811,18.585      c2.535,12.391,4.889,24.817,7.239,37.243c2.294,12.436,4.587,24.873,6.697,37.344l3.159,18.707      C150.837,308.692,151.885,314.928,152.783,321.193z" data-index="1"/>
			</g>
			<g>
				
			</g>
			<g>
				<path style="fill: rgb(255, 255, 255); visibility: hidden;" d="M180.636,339.73c-2.594-1.135-5.057-2.465-7.476-3.864c-2.417-1.4-4.79-2.868-7.11-4.414      c-2.324-1.54-4.593-3.163-6.819-4.851c-2.225-1.69-4.402-3.45-6.449-5.407c2.595,1.132,5.06,2.462,7.478,3.861      c2.417,1.401,4.79,2.867,7.108,4.417c2.322,1.543,4.592,3.165,6.817,4.854C176.409,336.016,178.588,337.775,180.636,339.73z" data-index="3"/>
			</g>
			<g>
				
			</g>
			<path style="fill: rgb(255, 255, 255); visibility: hidden;" d="M160.029,171.029c-3.036,0.716-4.917,3.758-4.202,6.794s3.758,4.917,6.794,4.202     c3.036-0.716,4.918-3.758,4.202-6.794C166.108,172.194,163.066,170.313,160.029,171.029z M161.989,179.339     c-1.553,0.366-3.11-0.596-3.476-2.15c-0.366-1.554,0.596-3.11,2.15-3.476c1.553-0.366,3.11,0.596,3.476,2.15     C164.505,177.417,163.542,178.973,161.989,179.339z" data-index="5"/>
			
			
				<path style="fill: none; stroke: rgb(31, 59, 83); stroke-width: 5.0738; stroke-linecap: round; stroke-linejoin: round; stroke-miterlimit: 10; visibility: hidden;" d="     M161.326,176.526c16.552,2.554-5.719-95.224,32.399-80.112c18.204,7.217,12.994,61.988,24.61,70.22" data-index="7"/>
		</g>
		<g>
			<g>
				<g>
					
					
						<path style="fill: rgb(31, 59, 83); stroke: rgb(31, 59, 83); stroke-width: 2; stroke-linecap: round; stroke-linejoin: round; stroke-miterlimit: 10; visibility: hidden;" d="       M214.418,235.839c1.023-1.023,2.392-1.589,3.85-1.593c1.456,0.004,2.823,0.571,3.849,1.597l13.171,13.171       c0.242,0.242,0.634,0.242,0.876,0c0.242-0.242,0.242-0.634,0-0.876c-2.124-2.124-2.124-5.579,0-7.703       c1.031-1.031,2.399-1.597,3.852-1.593c1.456,0,2.824,0.566,3.852,1.593l3.983,3.983c0.242,0.242,0.634,0.242,0.876,0       c0.242-0.242,0.242-0.634,0-0.876c-2.124-2.124-2.126-5.577-0.004-7.699c1.027-1.027,2.395-1.593,3.853-1.593       c1.451-0.004,2.818,0.562,3.85,1.593l3.37,3.37c0.242,0.242,0.634,0.242,0.876,0c0.242-0.242,0.242-0.634,0-0.876       c-2.124-2.124-2.126-5.577-0.004-7.699c1.032-1.031,2.399-1.597,3.852-1.593c1.456,0,2.824,0.566,3.852,1.593l8.53,8.53       c5.676,5.676,10.459,12.151,14.216,19.246l5.109,9.648l-25.503,25.503l-3.059-0.329c-5.247-0.564-10.456-1.669-15.48-3.283       c-4.414-1.418-8.127-2.558-11.11-3.474c-12.757-3.917-13.937-4.39-13.937-8.238c0-1.451,0.567-2.817,1.598-3.847       c1.019-1.019,2.368-1.585,3.801-1.597l11.3,1.745c0.199,0.031,0.396-0.037,0.533-0.174c0.045-0.045,0.084-0.098,0.114-0.158       c0.121-0.239,0.075-0.529-0.114-0.718l-29.949-29.949C212.295,241.418,212.295,237.963,214.418,235.839 M213.98,235.401       c-2.37,2.37-2.366,6.213,0,8.579l29.949,29.949l-11.349-1.753c-1.674,0-3.19,0.684-4.285,1.779       c-1.095,1.095-1.779,2.611-1.779,4.285c0,5.487,2.877,5.04,25.477,12.302c5.075,1.631,10.304,2.74,15.604,3.309l3.354,0.36       l26.036-26.036l-5.323-10.052c-3.782-7.142-8.611-13.679-14.326-19.394l-8.53-8.53c-1.183-1.183-2.738-1.775-4.29-1.775       c-1.556-0.005-3.102,0.587-4.29,1.775c-2.366,2.366-2.366,6.204,0.004,8.575l-3.369-3.369c-1.187-1.188-2.734-1.779-4.29-1.775       c-1.551,0-3.107,0.592-4.29,1.775c-2.366,2.366-2.366,6.204,0.004,8.575l-3.983-3.983c-1.183-1.183-2.739-1.775-4.29-1.775       c-1.555-0.004-3.107,0.591-4.29,1.775c-2.37,2.37-2.37,6.209,0,8.579l-13.172-13.171c-1.183-1.183-2.738-1.775-4.285-1.779       C216.714,233.631,215.163,234.218,213.98,235.401L213.98,235.401z" data-index="9"/>
				</g>
				<g>
					
					
						<path style="fill: rgb(31, 59, 83); stroke: rgb(31, 59, 83); stroke-width: 2; stroke-linecap: round; stroke-linejoin: round; stroke-miterlimit: 10; visibility: hidden;" d="       M296.549,268.614l6.534,6.534c0.98,0.98,0.98,2.576,0,3.556l-21.604,21.604c-0.98,0.98-2.576,0.98-3.556,0l-6.534-6.534       L296.549,268.614 M296.549,267.738l-26.036,26.036l6.972,6.972c1.224,1.224,3.208,1.224,4.432,0l21.604-21.604       c1.224-1.224,1.224-3.208,0-4.432L296.549,267.738L296.549,267.738z" data-index="11"/>
				</g>
				
					
				
					<path style="fill: rgb(31, 59, 83); stroke: rgb(31, 59, 83); stroke-width: 2; stroke-linecap: round; stroke-linejoin: round; stroke-miterlimit: 10; visibility: hidden;" d="      M254.619,250.31L254.619,250.31c-0.241,0.241-0.632,0.241-0.874,0l-5.893-5.893l0.874-0.874l5.893,5.893      C254.86,249.678,254.86,250.069,254.619,250.31z" data-index="13"/>
				
					
			</g>
			<g>
				<polygon style="fill:none;" points="208.293,230.678 189.595,221.046 198.661,211.98     "/>
				<polygon style="fill:none;" points="230.246,230.678 239.879,211.98 248.945,221.046     "/>
				<polygon style="fill:none;" points="208.293,252.631 198.661,271.329 189.595,262.263     "/>
				<polygon style="fill:none;" points="219.27,224.758 212.859,204.725 225.68,204.725     "/>
				<polygon style="fill:none;" points="202.373,241.654 182.34,248.065 182.34,235.244     "/>
			</g>
		</g>
	</g>
</g>
</svg>
